<svg width="19" height="19" viewBox="0 0 19 19" fill="none" xmlns="http://www.w3.org/2000/svg">
<path fill-rule="evenodd" clip-rule="evenodd" d="M11.3503 14.9395C12.0934 13.4533 12.5942 11.3002 12.5942 8.84403C12.5942 5.82413 10.7124 3.05986 9.35427 1.48427C9.32853 1.45441 9.30753 1.44207 9.29555 1.43658C9.28257 1.43063 9.27104 1.42857 9.26086 1.42857C9.25069 1.42857 9.23915 1.43063 9.22618 1.43658C9.2142 1.44207 9.19319 1.45441 9.16746 1.48427C7.80928 3.05986 5.92753 5.82413 5.92753 8.84403C5.92753 11.3002 6.42836 13.4533 7.17145 14.9395C7.95724 16.5111 8.77851 16.9393 9.26086 16.9393C9.74317 16.9393 10.5645 16.5111 11.3503 14.9395ZM14.0153 8.48176C14.5843 8.35266 15.146 8.27509 15.6748 8.23239C16.0571 6.82307 15.9987 5.30793 15.8336 4.14813C15.8289 4.11573 15.8202 4.1005 15.8169 4.09528C15.8129 4.08911 15.8093 4.08612 15.8065 4.08438C15.8037 4.08265 15.7995 4.08064 15.7922 4.07968C15.786 4.07887 15.7685 4.07755 15.7373 4.08729C14.9875 4.32085 14.1141 4.66627 13.2857 5.15478C13.1084 4.70008 12.9073 4.26333 12.6918 3.84778C13.6196 3.31767 14.5571 2.95866 15.3124 2.72336C16.2186 2.44107 17.114 3.00707 17.2478 3.9467C17.4073 5.0662 17.4981 6.63035 17.155 8.19268C17.1959 8.1937 17.2363 8.19488 17.2762 8.1962C18.2248 8.22772 18.8842 9.05679 18.7015 9.98813C18.3682 11.6868 17.5403 14.3166 15.507 15.9338C13.389 17.6185 11.0701 18.5052 9.36603 18.4318C7.66186 18.5052 5.34307 17.6185 3.225 15.9338C1.19171 14.3166 0.363765 11.6868 0.030484 9.98813C-0.152249 9.05679 0.507183 8.22772 1.45578 8.1962C1.49567 8.19488 1.53611 8.1937 1.57707 8.19268C1.23394 6.63035 1.32474 5.0662 1.48418 3.9467C1.61801 3.00707 2.51346 2.44107 3.41964 2.72336C4.13082 2.94492 5.00349 3.27615 5.8776 3.75664C5.65989 4.1694 5.45586 4.60364 5.27496 5.05611C4.49846 4.61934 3.69298 4.3048 2.99474 4.08729C2.96349 4.07755 2.94601 4.07887 2.93984 4.07968C2.93255 4.08064 2.92829 4.08265 2.92555 4.08438C2.92281 4.08612 2.91916 4.08911 2.91517 4.09528C2.91179 4.1005 2.90309 4.11573 2.89848 4.14813C2.7333 5.30793 2.67491 6.82307 3.05721 8.23239C3.52134 8.26987 4.01084 8.33421 4.50841 8.4367C4.66486 5.05227 6.72944 2.12458 8.08542 0.551535C8.71931 -0.183845 9.80241 -0.183846 10.4363 0.551535C11.7983 2.13155 13.8752 5.07828 14.0153 8.48176ZM12.2137 16.3161C13.1784 14.7891 13.8405 12.5306 13.9904 9.95946C15.1193 9.65517 16.2851 9.5926 17.2288 9.62403C17.2616 9.62508 17.2776 9.63203 17.2832 9.63489C17.2897 9.63813 17.2931 9.64146 17.2951 9.64403C17.2971 9.64651 17.2995 9.6506 17.3013 9.65774C17.3028 9.66374 17.306 9.68098 17.2996 9.71308C16.9836 11.3243 16.2397 13.5257 14.6177 14.8158C13.8023 15.4644 12.9824 15.961 12.2137 16.3161ZM6.21918 16.172C5.5387 15.8307 4.8248 15.381 4.11426 14.8158C2.49227 13.5257 1.74845 11.3243 1.43233 9.71308C1.42603 9.68098 1.42923 9.66374 1.4307 9.65774C1.43244 9.6506 1.4349 9.64651 1.43692 9.64403C1.43894 9.64146 1.4423 9.63813 1.44886 9.63489C1.45443 9.63203 1.4705 9.62508 1.50321 9.62403C2.3876 9.5946 3.46697 9.64765 4.52817 9.90479C4.66747 12.4188 5.29605 14.6377 6.21918 16.172Z" fill="#31775A"/>
</svg>
