<svg width="18" height="19" viewBox="0 0 18 19" fill="none" xmlns="http://www.w3.org/2000/svg">
<path fill-rule="evenodd" clip-rule="evenodd" d="M4.55379 1.36365L5.50744 2.3855C5.55063 2.41702 5.59188 2.45295 5.63062 2.49342L7.01364 3.93756L8.1605 1.36364L4.55379 1.36365ZM2.84323 1.52938L4.09104 2.86642L0.0832294 11.5781C-0.0734061 11.9185 -0.00504973 12.3202 0.255383 12.5897L1.59811 13.9792C1.61852 14.0082 1.64146 14.0361 1.66695 14.0623L5.33304 17.8424C5.63267 18.1513 6.04468 18.3257 6.47507 18.3257H11.3179C11.6584 18.3257 11.9406 18.0761 11.9915 17.7499C12.0906 17.687 12.1798 17.6033 12.2521 17.4988L16.9478 10.7186C17.3357 10.1585 16.9909 9.40787 16.3519 9.30396L15.2588 5.94831C15.0627 5.34655 14.327 5.12426 13.8306 5.51676L9.37549 9.03869C9.28058 9.11369 9.20649 9.1996 9.15149 9.29187H6.2332C6.19741 9.29187 6.16237 9.29378 6.12813 9.2976L7.78344 5.55538C7.81241 5.48988 7.83314 5.42223 7.84587 5.3538C7.89076 5.29635 7.92971 5.23209 7.96127 5.16125L9.69104 1.27909C9.95895 0.677834 9.51886 -2.72726e-06 8.86067 0L3.50785 2.2704e-05C2.71297 2.63403e-05 2.3009 0.948261 2.84323 1.52938ZM10.3384 16.9621L5.51551 10.759C5.5082 10.7496 5.50112 10.7401 5.49426 10.7306L3.87833 14.3838L6.31192 16.8931C6.35472 16.9371 6.41358 16.9621 6.47507 16.9621H10.3384ZM1.45195 11.8656L5.09644 3.94372L6.39145 5.33135L2.85766 13.3203L1.45195 11.8656ZM7.16237 10.6555L11.4836 16.2134L15.3289 10.661H9.93922C9.90377 10.661 9.86904 10.6591 9.83522 10.6555H7.16237ZM14.9139 9.29187H11.254L14.1643 6.9912L14.9139 9.29187Z" fill="#FFAD43"/>
</svg>
