<svg width="20" height="19" viewBox="0 0 20 19" fill="none" xmlns="http://www.w3.org/2000/svg">
<path fill-rule="evenodd" clip-rule="evenodd" d="M5.32688 2.09376L3.39565 4.4904C4.20326 4.91146 4.5506 5.99437 3.96479 6.83024L2.42283 9.03043H7.93541L6.39345 6.83024C5.75692 5.92199 6.22214 4.72207 7.18243 4.3965L5.32688 2.09376ZM9.04071 4.31197L5.71621 0.186277C5.51607 -0.0620922 5.13768 -0.0620922 4.93755 0.186277L1.61304 4.31197L1.60392 4.32329L1.44937 4.51509L1.06004 4.99825C0.882573 5.21849 0.930153 5.51107 1.10842 5.67871C1.15131 5.71905 1.20176 5.75215 1.25847 5.77527C1.3161 5.79878 1.3802 5.81197 1.44937 5.81197H2.06987H2.31619H2.33073H2.51184H2.65453C2.73546 5.81197 2.78287 5.90309 2.73642 5.96936L2.65453 6.08621L1.93344 7.11512L1.79548 7.31197L0.591136 9.03043L0.588596 9.03405L0.500872 9.15922L0.0914146 9.74348C-0.140815 10.0749 0.0962325 10.5304 0.500872 10.5304H1.21431H1.36716H1.37159H4.4497V13.2402C4.06949 13.2022 3.68381 13.1827 3.29359 13.1827C2.59075 13.1827 1.90265 13.2458 1.23464 13.3667C0.805433 13.4443 0.562307 13.8896 0.698083 14.3041C0.820662 14.6783 1.21027 14.892 1.59844 14.8257C2.14889 14.7317 2.71517 14.6827 3.29359 14.6827C6.49192 14.6827 9.34091 16.1854 11.1705 18.5275C11.3788 18.7941 11.7289 18.9144 12.0504 18.8091C12.5252 18.6536 12.726 18.0911 12.4223 17.6944C11.7412 16.8047 10.9329 16.0175 10.0247 15.3598C11.8457 13.4339 14.4248 12.2322 17.2846 12.2322C17.7729 12.2322 18.253 12.2672 18.7226 12.3349C19.1955 12.4031 19.6432 12.0522 19.6432 11.5744C19.6432 11.2249 19.3984 10.9208 19.053 10.8675C18.4766 10.7784 17.886 10.7322 17.2846 10.7322C16.9012 10.7322 16.5222 10.751 16.1484 10.7877V8.62539H17.8308H17.8352H17.9881H18.7015C19.1061 8.62539 19.3432 8.1698 19.111 7.83843L18.7015 7.25419L18.6138 7.12902L18.6112 7.12539L18.0051 6.26054L17.8672 6.06369L17.1461 5.03478L17.0642 4.91793C17.0177 4.85166 17.0651 4.76054 17.1461 4.76054H17.2701H17.2846H17.2888H17.531H18.1515C18.3059 4.76054 18.435 4.69477 18.5235 4.59534C18.552 4.56329 18.5763 4.52774 18.5958 4.48977C18.6806 4.32511 18.6762 4.1149 18.5408 3.94682L18.1515 3.46366L17.9969 3.27186L17.9878 3.26054L15.5538 0.239988C15.3537 -0.00838125 14.9753 -0.00838125 14.7751 0.239988L12.3412 3.26054L12.332 3.27186L12.1775 3.46366L11.7882 3.94682C11.7195 4.03198 11.6846 4.12795 11.6778 4.22334C11.677 4.23456 11.6766 4.24577 11.6766 4.25695C11.6759 4.5159 11.8797 4.76054 12.1775 4.76054H12.798H12.9408C12.9745 4.76054 13.0025 4.77638 13.0202 4.79966L13.0235 4.80436C13.0453 4.83663 13.0485 4.88111 13.0227 4.91793L12.9408 5.03478L12.2197 6.06369L12.1775 6.12392L12.0832 6.25848L11.4756 7.12539L11.4731 7.12902L11.3854 7.25419L10.9759 7.83843C10.7437 8.1698 10.9807 8.62539 11.3854 8.62539H12.0988H12.2517H12.2561H14.6484V11.036C12.3777 11.5691 10.3666 12.7757 8.83737 14.4336C8.80117 14.4728 8.77043 14.5137 8.74485 14.5557C7.87456 14.0858 6.93675 13.7249 5.9497 13.4913V10.5304H8.98666H8.99109H9.14393H9.85742C10.262 10.5304 10.499 10.0749 10.2668 9.74348L9.85742 9.15922L9.76962 9.03405L9.76712 9.03043L8.56276 7.31197L8.42481 7.11512L7.70371 6.08621L7.62182 5.96936C7.57538 5.90309 7.62279 5.81197 7.70371 5.81197H7.8464H8.32303H8.33757H8.58388H9.10284H9.20438C9.24922 5.81197 9.29192 5.80643 9.33211 5.79613C9.66852 5.70991 9.82912 5.29043 9.59371 4.99825L9.20438 4.51509L9.04983 4.32329L9.04071 4.31197ZM13.9687 3.63147L15.1645 2.14747L16.2694 3.51862C15.5602 3.98464 15.2839 4.99135 15.8358 5.77881L16.7795 7.12539H13.3073L14.2511 5.77881C14.7618 5.05002 14.5632 4.13344 13.9687 3.63147Z" fill="#31775A"/>
</svg>
