<svg width="19" height="20" viewBox="0 0 19 20" fill="none" xmlns="http://www.w3.org/2000/svg">
<path fill-rule="evenodd" clip-rule="evenodd" d="M15.436 9.30966H16.6463C17.8827 9.30966 18.8529 10.3701 18.7434 11.6016L18.0905 18.9346C18.0542 19.3419 17.7131 19.6541 17.3041 19.6541C16.8405 19.6541 16.4766 19.2564 16.5178 18.7946L17.1706 11.4616C17.198 11.1537 16.9555 10.8886 16.6463 10.8886H2.301C1.99189 10.8886 1.74935 11.1537 1.77676 11.4616L2.42957 18.7946C2.47067 19.2564 2.10685 19.6541 1.6432 19.6541C1.23432 19.6541 0.893094 19.3419 0.856837 18.9346L0.204027 11.6016C0.0943923 10.3701 1.0646 9.30966 2.301 9.30966H3.40922C3.30382 8.55798 3.25041 7.84913 3.25041 7.22484C3.25041 6.80915 3.27409 6.40164 3.32104 6.00515H0.789474C0.353459 6.00515 0 5.65169 0 5.21567C0 4.77966 0.353459 4.4262 0.789474 4.4262H3.42105C3.49706 4.4262 3.57057 4.43695 3.64013 4.457C4.43196 1.84029 6.41295 0 9.42262 0C12.4453 0 14.4303 1.85613 15.2153 4.49074C15.3113 4.44922 15.4172 4.4262 15.5284 4.4262H18.16C18.596 4.4262 18.9495 4.77966 18.9495 5.21567C18.9495 5.65169 18.596 6.00515 18.16 6.00515H15.5284L15.5242 6.00514C15.5712 6.40164 15.5948 6.80914 15.5948 7.22484C15.5948 7.84913 15.5415 8.55798 15.436 9.30966ZM13.8403 9.30966C13.9567 8.54861 14.0159 7.83534 14.0159 7.22484C14.0159 5.49982 13.5427 4.06733 12.7714 3.10151C12.0309 2.17456 10.9445 1.57895 9.42262 1.57895C7.90072 1.57895 6.81429 2.17456 6.07393 3.10151C5.30251 4.06733 4.82936 5.49982 4.82936 7.22484C4.82936 7.83534 4.88847 8.54861 5.00497 9.30966H13.8403ZM8.27868 5.98183C8.27868 6.2725 8.04304 6.50815 7.75237 6.50815C7.46168 6.50815 7.22605 6.2725 7.22605 5.98183C7.22605 5.69116 7.46168 5.45552 7.75237 5.45552C8.04304 5.45552 8.27868 5.69116 8.27868 5.98183ZM9.33132 5.98183C9.33132 6.85386 8.62439 7.56078 7.75237 7.56078C6.88034 7.56078 6.17342 6.85386 6.17342 5.98183C6.17342 5.1098 6.88034 4.40288 7.75237 4.40288C8.62439 4.40288 9.33132 5.1098 9.33132 5.98183ZM11.1971 6.50815C11.4877 6.50815 11.7234 6.2725 11.7234 5.98183C11.7234 5.69116 11.4877 5.45552 11.1971 5.45552C10.9064 5.45552 10.6707 5.69116 10.6707 5.98183C10.6707 6.2725 10.9064 6.50815 11.1971 6.50815ZM11.1971 7.56078C12.0691 7.56078 12.776 6.85386 12.776 5.98183C12.776 5.1098 12.0691 4.40288 11.1971 4.40288C10.325 4.40288 9.61812 5.1098 9.61812 5.98183C9.61812 6.85386 10.325 7.56078 11.1971 7.56078ZM5.38292 15.0807V14.0281H8.54081V15.0807H5.38292ZM3.80397 12.9754C3.80397 12.6848 4.03961 12.4491 4.33028 12.4491H9.59344C9.88412 12.4491 10.1198 12.6848 10.1198 12.9754V16.1333C10.1198 16.424 9.88412 16.6596 9.59344 16.6596H4.33028C4.03961 16.6596 3.80397 16.424 3.80397 16.1333V12.9754ZM10.9328 13.4162C10.9328 12.9802 11.2863 12.6267 11.7223 12.6267H14.3539C14.7899 12.6267 15.1434 12.9802 15.1434 13.4162C15.1434 13.8522 14.7899 14.2056 14.3539 14.2056H11.7223C11.2863 14.2056 10.9328 13.8522 10.9328 13.4162ZM11.7223 14.7772C11.2863 14.7772 10.9328 15.1307 10.9328 15.5667C10.9328 16.0027 11.2863 16.3562 11.7223 16.3562H14.3539C14.7899 16.3562 15.1434 16.0027 15.1434 15.5667C15.1434 15.1307 14.7899 14.7772 14.3539 14.7772H11.7223Z" fill="#7A1D47"/>
</svg>
