<svg width="19" height="20" viewBox="0 0 19 20" fill="none" xmlns="http://www.w3.org/2000/svg">
<path fill-rule="evenodd" clip-rule="evenodd" d="M0 17.1276C0.45511 17.3371 0.918572 17.5317 1.38975 17.7105C3.82252 18.6338 6.46099 19.1393 9.21752 19.1393C11.975 19.1393 14.6144 18.6334 17.0479 17.7095C17.519 17.5306 17.9824 17.336 18.4375 17.1264L17.7251 15.8029L16.7884 14.0627L16.0117 12.6195L10.0708 1.58241L9.21909 0L8.36734 1.58241L0.712426 15.804L0 17.1276ZM9.21909 3.16482L14.6006 13.1628C12.9097 13.7281 11.1002 14.0343 9.21922 14.0343C7.33812 14.0343 5.52854 13.728 3.83762 13.1627L9.21909 3.16482ZM9.21922 15.6679C7.05774 15.6679 4.9824 15.2991 3.0527 14.621L2.1073 16.3774C4.32163 17.1933 6.71613 17.6393 9.21752 17.6393C11.7199 17.6393 14.1153 17.193 16.3303 16.3764L15.3855 14.6211C13.4558 15.2991 11.3806 15.6679 9.21922 15.6679ZM10.8225 11.8684C11.3748 11.8684 11.8225 11.4207 11.8225 10.8684C11.8225 10.3161 11.3748 9.86841 10.8225 9.86841C10.2702 9.86841 9.82251 10.3161 9.82251 10.8684C9.82251 11.4207 10.2702 11.8684 10.8225 11.8684ZM8.50928 11.8684C8.50928 12.4207 8.06156 12.8684 7.50928 12.8684C6.95699 12.8684 6.50928 12.4207 6.50928 11.8684C6.50928 11.3161 6.95699 10.8684 7.50928 10.8684C8.06156 10.8684 8.50928 11.3161 8.50928 11.8684ZM9.14819 8.86841C9.70048 8.86841 10.1482 8.4207 10.1482 7.86841C10.1482 7.31612 9.70048 6.86841 9.14819 6.86841C8.59591 6.86841 8.14819 7.31612 8.14819 7.86841C8.14819 8.4207 8.59591 8.86841 9.14819 8.86841Z" fill="#7A1D47"/>
</svg>
