<svg width="71" height="72" viewBox="0 0 71 72" fill="none" xmlns="http://www.w3.org/2000/svg">
<path d="M35.7344 0C45.3664 0 53.456 3.54137 59.6445 9.30762L49.3945 19.5566C45.6912 16.0158 40.9808 14.2129 35.7344 14.2129C26.4273 14.213 18.5493 20.4991 15.7393 28.9453L15.6094 29.3486C14.9759 31.3755 14.6182 33.5264 14.6182 35.7344C14.6182 38.0896 15.0246 40.3803 15.7393 42.5244L15.875 42.918C18.796 51.1649 26.5726 57.2557 35.7344 57.2559C40.5423 57.2559 44.6361 55.9898 47.8359 53.8457L48.1865 53.6045C51.7759 51.0746 54.1633 47.3869 54.9658 43.0596H35.7344V29.2373H69.3896C69.812 31.5763 70.04 34.013 70.04 36.5469C70.04 47.4294 66.1417 56.5905 59.3848 62.8115L58.8232 63.3164C52.9644 68.4657 45.081 71.4688 35.7344 71.4688C21.7656 71.4686 9.68069 63.4608 3.80078 51.7822C1.38066 46.9581 0 41.5005 0 35.7344C-0.00212622 30.3358 1.21964 25.0093 3.57031 20.1543L3.80078 19.6865C9.68069 8.00792 21.7656 0.000101784 35.7344 0Z" fill="black"/>
</svg>
